<svg xmlns="http://www.w3.org/2000/svg" xmlns:xlink="http://www.w3.org/1999/xlink" width="324" zoomAndPan="magnify" viewBox="0 0 242.87999 242.999999" height="324" preserveAspectRatio="xMidYMid meet" version="1.0"><defs><filter x="0%" y="0%" width="100%" height="100%" id="74415c2210"><feColorMatrix values="0 0 0 0 1 0 0 0 0 1 0 0 0 0 1 0 0 0 1 0" color-interpolation-filters="sRGB"/></filter><clipPath id="1d9868c36b"><path d="M 0 0.0585938 L 242.761719 0.0585938 L 242.761719 242.9375 L 0 242.9375 Z M 0 0.0585938 " clip-rule="nonzero"/></clipPath><mask id="86e2a1deb2"><g filter="url(#74415c2210)"><rect x="-24.287999" width="291.455988" fill="#000000" y="-24.3" height="291.599999" fill-opacity="0.88"/></g></mask><clipPath id="fa63d459f8"><path d="M 0 0.0585938 L 242.761719 0.0585938 L 242.761719 242.9375 L 0 242.9375 Z M 0 0.0585938 " clip-rule="nonzero"/></clipPath><clipPath id="febb0c174b"><path d="M 121.441406 0.0585938 C 54.371094 0.0585938 0 54.429688 0 121.5 C 0 188.570312 54.371094 242.941406 121.441406 242.941406 C 188.507812 242.941406 242.878906 188.570312 242.878906 121.5 C 242.878906 54.429688 188.507812 0.0585938 121.441406 0.0585938 Z M 121.441406 0.0585938 " clip-rule="nonzero"/></clipPath><clipPath id="4a16e338d9"><rect x="0" width="243" y="0" height="243"/></clipPath><clipPath id="b2d3405d05"><path d="M 92 101 L 151 101 L 151 154 L 92 154 Z M 92 101 " clip-rule="nonzero"/></clipPath><clipPath id="893914873f"><path d="M 94.070312 98.992188 L 152.722656 103.210938 L 148.972656 155.347656 L 90.324219 151.128906 Z M 94.070312 98.992188 " clip-rule="nonzero"/></clipPath><clipPath id="34885379d6"><path d="M 123.3125 101.097656 C 107.164062 99.933594 93.234375 110.664062 92.195312 125.0625 C 91.160156 139.457031 103.414062 152.070312 119.5625 153.230469 C 135.710938 154.394531 149.644531 143.664062 150.679688 129.265625 C 151.714844 114.871094 139.460938 102.257812 123.3125 101.097656 Z M 123.3125 101.097656 " clip-rule="nonzero"/></clipPath><clipPath id="066b93fa8f"><path d="M 115 35.269531 L 128 35.269531 L 128 66 L 115 66 Z M 115 35.269531 " clip-rule="nonzero"/></clipPath><clipPath id="d155cf96b8"><path d="M 33.492188 97 L 64 97 L 64 109 L 33.492188 109 Z M 33.492188 97 " clip-rule="nonzero"/></clipPath><clipPath id="0609fbccec"><path d="M 48 145 L 195 145 L 195 189.265625 L 48 189.265625 Z M 48 145 " clip-rule="nonzero"/></clipPath></defs><g clip-path="url(#1d9868c36b)"><g mask="url(#86e2a1deb2)"><g transform="matrix(1, 0, 0, 1, 0, -0.000000000000022163)"><g clip-path="url(#4a16e338d9)"><g clip-path="url(#fa63d459f8)"><g clip-path="url(#febb0c174b)"><path fill="#ffffff" d="M 0 0.0585938 L 242.878906 0.0585938 L 242.878906 242.941406 L 0 242.941406 Z M 0 0.0585938 " fill-opacity="1" fill-rule="nonzero"/></g></g></g></g></g></g><g clip-path="url(#b2d3405d05)"><g clip-path="url(#893914873f)"><g clip-path="url(#34885379d6)"><path fill="#ffd84e" d="M 94.070312 98.992188 L 152.519531 103.199219 L 148.769531 155.332031 L 90.324219 151.128906 Z M 94.070312 98.992188 " fill-opacity="1" fill-rule="nonzero"/><path fill="#ffd84e" d="M 94.070312 98.992188 L 152.519531 103.199219 L 148.769531 155.332031 L 90.324219 151.128906 Z M 94.070312 98.992188 " fill-opacity="1" fill-rule="nonzero"/></g></g></g><g clip-path="url(#066b93fa8f)"><path fill="#ff6854" d="M 127.050781 40.882812 C 127.050781 37.785156 124.535156 35.269531 121.4375 35.269531 C 118.335938 35.269531 115.824219 37.785156 115.824219 40.882812 L 115.824219 59.597656 C 115.824219 62.695312 118.335938 65.210938 121.4375 65.210938 C 124.535156 65.210938 127.050781 62.695312 127.050781 59.597656 Z M 127.050781 40.882812 " fill-opacity="1" fill-rule="nonzero"/></g><path fill="#ff6854" d="M 170.085938 184.964844 L 170.085938 128.828125 C 170.085938 101.960938 148.304688 80.179688 121.4375 80.179688 C 94.566406 80.179688 72.785156 101.960938 72.785156 128.828125 L 72.785156 184.964844 Z M 158.859375 128.828125 L 158.859375 173.738281 L 84.011719 173.738281 L 84.011719 128.828125 C 84.011719 108.160156 100.769531 91.40625 121.4375 91.40625 C 142.105469 91.40625 158.859375 108.160156 158.859375 128.828125 Z M 158.859375 128.828125 " fill-opacity="1" fill-rule="evenodd"/><path fill="#ff6854" d="M 179.441406 100.761719 C 179.441406 97.660156 181.957031 95.148438 185.058594 95.148438 L 203.769531 95.148438 C 206.867188 95.148438 209.382812 97.660156 209.382812 100.761719 C 209.382812 103.863281 206.867188 106.375 203.769531 106.375 L 185.058594 106.375 C 181.957031 106.375 179.441406 103.863281 179.441406 100.761719 Z M 179.441406 100.761719 " fill-opacity="1" fill-rule="nonzero"/><g clip-path="url(#d155cf96b8)"><path fill="#ff6854" d="M 39.105469 97.019531 C 36.003906 97.019531 33.492188 99.53125 33.492188 102.632812 C 33.492188 105.734375 36.003906 108.246094 39.105469 108.246094 L 57.816406 108.246094 C 60.917969 108.246094 63.429688 105.734375 63.429688 102.632812 C 63.429688 99.53125 60.917969 97.019531 57.816406 97.019531 Z M 39.105469 97.019531 " fill-opacity="1" fill-rule="nonzero"/></g><path fill="#ff6854" d="M 62.199219 54.625 C 64.394531 52.433594 67.945312 52.433594 70.140625 54.625 L 83.371094 67.855469 C 85.5625 70.046875 85.5625 73.601562 83.371094 75.792969 C 81.179688 77.988281 77.625 77.988281 75.433594 75.792969 L 62.199219 62.5625 C 60.007812 60.371094 60.007812 56.816406 62.199219 54.625 Z M 62.199219 54.625 " fill-opacity="1" fill-rule="nonzero"/><path fill="#ff6854" d="M 170.863281 54.625 C 173.054688 52.433594 176.609375 52.433594 178.800781 54.625 C 180.992188 56.816406 180.992188 60.371094 178.800781 62.5625 L 165.570312 75.792969 C 163.378906 77.988281 159.824219 77.988281 157.632812 75.792969 C 155.4375 73.601562 155.4375 70.046875 157.632812 67.855469 Z M 170.863281 54.625 " fill-opacity="1" fill-rule="nonzero"/><g clip-path="url(#0609fbccec)"><path fill="#004aad" d="M 170.085938 145.671875 L 170.085938 174.320312 C 183.957031 177.082031 194.414062 189.324219 194.414062 204.007812 C 194.414062 207.960938 191.210938 211.160156 187.257812 211.160156 L 55.613281 211.160156 C 51.664062 211.160156 48.460938 207.960938 48.460938 204.007812 C 48.460938 189.324219 58.914062 177.082031 72.785156 174.320312 L 72.785156 145.671875 Z M 84.011719 173.738281 L 158.859375 173.738281 L 158.859375 156.898438 L 84.011719 156.898438 Z M 78.730469 184.964844 C 69.609375 184.964844 61.988281 191.375 60.125 199.933594 L 182.75 199.933594 C 180.882812 191.375 173.261719 184.964844 164.144531 184.964844 Z M 78.730469 184.964844 " fill-opacity="1" fill-rule="evenodd"/></g></svg>